<svg width="25" height="24" viewBox="0 0 25 24" fill="none" xmlns="http://www.w3.org/2000/svg">
<path d="M4.85767 3.05043C4.37997 3.04132 3.98292 3.41153 3.97362 3.87884C3.96431 4.34614 4.34274 4.73456 4.82044 4.74366C4.83285 4.74366 4.84526 4.74366 4.85767 4.74366H20.4418C20.9195 4.75276 21.3166 4.38256 21.3259 3.91525C21.3352 3.44794 20.9568 3.05953 20.4791 3.05043C20.4667 3.05043 20.4542 3.05043 20.4418 3.05043H4.85767Z" fill="white"/>
<path d="M4.85767 10.673C4.37997 10.6639 3.98292 11.0341 3.97362 11.5014C3.96431 11.9687 4.34274 12.3571 4.82044 12.3662C4.83285 12.3662 4.84526 12.3662 4.85767 12.3662H20.4418C20.9195 12.3754 21.3166 12.0051 21.3259 11.5378C21.3352 11.0705 20.9568 10.6821 20.4791 10.673C20.4667 10.673 20.4542 10.673 20.4418 10.673H4.85767Z" fill="white"/>
<path d="M4.85767 18.2956C4.37997 18.2865 3.98292 18.6567 3.97362 19.124C3.96431 19.5913 4.34274 19.9797 4.82044 19.9888C4.83285 19.9888 4.84526 19.9888 4.85767 19.9888H20.4418C20.9195 19.9979 21.3166 19.6277 21.3259 19.1604C21.3352 18.6931 20.9568 18.3047 20.4791 18.2956C20.4667 18.2956 20.4542 18.2956 20.4418 18.2956H4.85767Z" fill="white"/>
</svg>
